<?xml version="1.0" encoding="utf-8"?>
<!-- Generator: Adobe Illustrator 24.1.2, SVG Export Plug-In . SVG Version: 6.00 Build 0)  -->
<svg version="1.1" id="Layer_2" xmlns="http://www.w3.org/2000/svg" xmlns:xlink="http://www.w3.org/1999/xlink" x="0px" y="0px"
	 viewBox="0 0 300 300" style="enable-background:new 0 0 300 300;" xml:space="preserve">
<style type="text/css">
	.st0{fill:#303031;}
	.st1{fill:#FFFFFF;}
</style>
<rect class="st0" width="300" height="300"/>
<g id="Layer_1">
	<g>
		<g>
			<g>
				<g id="_x38_96_x2C__Earth_x2C__globe_x2C__world_x2C__flag">
					<g>
						<path class="st1" d="M118.3,182.91l6.23-0.67l-0.22-5.79c0-0.44,0.22-0.67,0.44-0.89l3.12-3.12l-0.45-6.01
							c0-0.67,0.45-1.11,0.89-1.33l6.68-2.23c0.67-0.22,1.33,0,1.78,0.67l2.23,4.45l13.14-10.02l-2.45-9.35
							c-32.28,0-58.56,26.27-59,58.56h10.02v-5.79c0-0.44,0.22-0.67,0.45-0.89l16.25-16.92
							C117.63,183.13,117.86,183.13,118.3,182.91z M113.4,174.22c-1.11-1.11-1.11-2.89,0-4.01c1.11-1.11,2.89-1.11,4.01,0
							c1.11,1.11,1.11,2.9,0,4.01C116.3,175.34,114.52,175.34,113.4,174.22z"/>
						<path class="st1" d="M146.36,196.93l9.8-14.03l-5.34-1.11c-0.45,0-0.89-0.45-0.89-0.89c0-0.44-0.22-0.89,0-1.33l5.57-10.24
							c0.22-0.44,0.67-0.67,1.11-0.67l7.79-0.45l0.89-6.9c0-0.45,0.22-0.67,0.67-0.89l9.35-5.79c-6.01-2.9-12.69-4.9-19.81-5.57
							v-28.28h26.72l-8.68-8.68c-0.22-0.22-0.44-0.67-0.44-0.89c0-0.44,0.22-0.67,0.44-0.89l8.68-8.68h-26.72v-4.68
							c0-0.67-0.67-1.34-1.34-1.34c-0.67,0-1.33,0.67-1.33,1.34v52.1h-0.22l2.45,9.58c0.22,0.44,0,1.11-0.44,1.33l-15.14,11.58
							c-0.22,0.22-0.67,0.44-1.11,0.22c-0.44,0-0.67-0.44-0.89-0.67l-2.45-4.9l-4.45,1.34l0.22,5.34c0,0.45-0.22,0.67-0.45,1.12
							l-3.12,3.34l0.22,6.46c0,0.67-0.44,1.34-1.33,1.34l-6.9,0.67l-15.59,16.03v5.12h52.77l-10.02-8.46
							C145.91,198.27,145.91,197.38,146.36,196.93z M122.98,199.38c-1.11,1.11-2.9,1.11-4.01,0c-1.11-1.11-1.11-2.89,0-4.01
							c1.11-1.11,2.89-1.11,4.01,0C124.09,196.49,124.09,198.27,122.98,199.38z M139.68,188.25c-1.11,1.11-2.9,1.11-4.01,0
							c-1.11-1.11-1.11-2.89,0-4.01c1.11-1.11,2.89-1.11,4.01,0C140.79,185.36,140.79,187.14,139.68,188.25z"/>
						<path class="st1" d="M100.49,137.49c2.23,0,4.23-1.78,4.23-4.23c0-2.45-1.78-4.23-4.23-4.23c-2.45,0-4.23,1.78-4.23,4.23
							C96.26,135.7,98.26,137.49,100.49,137.49z"/>
						<path class="st1" d="M196.45,136.15c0,2.23,1.78,4.23,4.23,4.23c2.45,0,4.23-1.78,4.23-4.23c0-2.45-1.78-4.23-4.23-4.23
							C198.23,131.92,196.45,133.92,196.45,136.15z"/>
						<path class="st1" d="M178.19,156.19l-10.24,6.23l-1.11,7.35c0,0.67-0.67,1.11-1.33,1.11l-8.02,0.67l-4.23,7.79l5.57,1.11
							c0.45,0,0.89,0.44,1.11,0.89c0.22,0.45,0.22,0.89-0.22,1.34l-10.46,14.69l11.58,9.57h18.7l-4.45-3.12
							c-0.22-0.22-0.44-0.45-0.67-0.89l-2.89-11.13c0-0.45,0-0.67,0.22-1.11l8.46-13.8c0.22-0.45,0.67-0.67,1.33-0.67
							c0.45,0,0.89,0.44,1.11,0.89l5.57,13.8l5.57,8.24c0.45,0.44,0.22,1.33-0.22,1.78l-6.01,6.01h21.15
							C208.47,185.13,196.23,165.99,178.19,156.19z M173.07,179.79c-1.11,1.11-2.89,1.11-4.01,0c-1.11-1.11-1.11-2.89,0-4.01
							c1.11-1.11,2.9-1.11,4.01,0C174.19,177.12,174.19,178.68,173.07,179.79z"/>
						<path class="st1" d="M185.77,192.48c0,0,0-0.22-0.22-0.22l-4.45-11.35l-6.68,10.91l2.45,10.02l6.9,4.68l6.68-6.68
							L185.77,192.48z"/>
						<path class="st1" d="M196.01,112.99c1.11,1.11,2.89,1.11,4.01,0l0,0c1.11-1.11,1.11-2.89,0-4.01c-1.11-1.11-2.89-1.11-4.01,0
							C194.89,110.32,194.89,111.88,196.01,112.99L196.01,112.99z"/>
						<path class="st1" d="M129.21,121.45c1.11,1.11,2.89,1.11,4.01,0l0,0c1.11-1.11,1.11-2.89,0-4.01c-1.11-1.11-2.9-1.11-4.01,0
							C128.1,118.56,128.1,120.34,129.21,121.45L129.21,121.45z"/>
						<path class="st1" d="M100.49,149.95c1.6,0,2.89,1.3,2.89,2.9c0,1.6-1.3,2.89-2.89,2.89c-1.6,0-2.89-1.3-2.89-2.89
							C97.6,151.25,98.89,149.95,100.49,149.95z"/>
						<path class="st1" d="M167.28,86.05c1.6,0,2.9,1.3,2.9,2.89c0,1.6-1.3,2.89-2.9,2.89c-1.6,0-2.89-1.3-2.89-2.89
							C164.39,87.35,165.69,86.05,167.28,86.05z"/>
						<path class="st1" d="M170.18,130.58c1.6,0,2.89,1.3,2.89,2.9c0,1.6-1.3,2.89-2.89,2.89c-1.6,0-2.9-1.3-2.9-2.89
							C167.28,131.88,168.58,130.58,170.18,130.58z"/>
					</g>
				</g>
				<g id="Layer_1_00000100359801450228428500000011440272449505924798_">
				</g>
			</g>
		</g>
	</g>
</g>
</svg>
